<svg width="18" height="19" viewBox="0 0 18 19" fill="none" xmlns="http://www.w3.org/2000/svg">
<path d="M8.55 18.2H8.61667C9.36661 18.2 9.74159 18.2 10.0045 18.009C10.0893 17.9473 10.164 17.8727 10.2257 17.7878C10.4167 17.5249 10.4167 17.15 10.4167 16.4V11.325H11.5625C12.1265 11.325 12.4085 11.325 12.6236 11.2145C12.8094 11.1191 12.9607 10.9678 13.0562 10.7819C13.1667 10.5668 13.1667 10.2848 13.1667 9.72085C13.1667 9.15686 13.1667 8.87487 13.0562 8.65977C12.9607 8.47392 12.8094 8.32263 12.6236 8.22716C12.4085 8.11668 12.1265 8.11668 11.5625 8.11668H10.4167V6.28335C10.4167 5.93445 10.4167 5.76001 10.4597 5.61806C10.5567 5.29846 10.8068 5.04836 11.1264 4.95141C11.2683 4.90835 11.4428 4.90835 11.7917 4.90835C12.1406 4.90835 12.315 4.90835 12.457 4.86529C12.7766 4.76834 13.0267 4.51823 13.1236 4.19863C13.1667 4.05668 13.1667 3.88224 13.1667 3.53335V3.12594C13.1667 2.72943 13.1667 2.53117 13.1112 2.37169C13.0108 2.08286 12.7838 1.85584 12.495 1.75544C12.3355 1.70001 12.1372 1.70001 11.7407 1.70001C10.353 1.70001 9.65907 1.70001 9.10089 1.89403C8.08998 2.2454 7.29539 3.03999 6.94401 4.0509C6.75 4.60908 6.75 5.30297 6.75 6.69075V8.11668H5.60417C5.04018 8.11668 4.75819 8.11668 4.5431 8.22716C4.35724 8.32263 4.20595 8.47392 4.11048 8.65977C4 8.87487 4 9.15686 4 9.72085C4 10.2848 4 10.5668 4.11048 10.7819C4.20595 10.9678 4.35724 11.1191 4.5431 11.2145C4.75819 11.325 5.04018 11.325 5.60417 11.325H6.75V16.4C6.75 17.15 6.75 17.5249 6.94098 17.7878C7.00266 17.8727 7.07732 17.9473 7.16221 18.009C7.42508 18.2 7.80005 18.2 8.55 18.2Z" stroke="#ffffff" stroke-width="1.5" stroke-linejoin="round"/>
</svg>
